# xmcd
#
# Track frame offsets:
#	151
#	18284
#	35670
#	53390
#	73819
#	94346
#	111758
#	133078
#	150376
#	166332
#	184139
#	200689
#	219828
#	236632
#	252886
#
# Disc length: 3591 seconds
#
# Revision: 2
# Processed by: cddbd v1.5.1PL0 Copyright (c) Steve Scherf et al.
# Submitted via: dBpowerAMP V4.0
#
DISCID=cb0e050f
DTITLE=พลพล - รวมฮิต
DYEAR=2003
DGENRE=Pop
TTITLE0=คำสามคำ (เพลงประกอบละคร  รักในรอยแค้น)
TTITLE1=คนเดินถนน
TTITLE2=ห่วงใย
TTITLE3=ขอให้โชคดี
TTITLE4=คนๆ นี้
TTITLE5=แฟนจนๆ
TTITLE6=รักเอย
TTITLE7=คนไม่สำคัญ
TTITLE8=สักวันหนึ่ง
TTITLE9=ใจคอ
TTITLE10=ยังยิ้มได้
TTITLE11=ฉันขอทำเพื่อเธอ
TTITLE12=อย่าหมิ่นน้ำใจกันเลย
TTITLE13=เมื่อไหร่  เมื่อนั้น
TTITLE14=คือฉัน
EXTD=Thai Music
EXTT0=
EXTT1=
EXTT2=
EXTT3=
EXTT4=
EXTT5=
EXTT6=
EXTT7=
EXTT8=
EXTT9=
EXTT10=
EXTT11=
EXTT12=
EXTT13=
EXTT14=
PLAYORDER=
